<?xml version="1.0" encoding="utf-8"?>
<!-- Generator: Adobe Illustrator 15.1.0, SVG Export Plug-In . SVG Version: 6.00 Build 0)  -->
<!DOCTYPE svg PUBLIC "-//W3C//DTD SVG 1.1//EN" "http://www.w3.org/Graphics/SVG/1.1/DTD/svg11.dtd">
<svg version="1.1" id="Слой_1" xmlns="http://www.w3.org/2000/svg" xmlns:xlink="http://www.w3.org/1999/xlink" x="0px" y="0px"
	 width="23.651px" height="8.64px" viewBox="-33.495 25.521 23.651 8.64" enable-background="new -33.495 25.521 23.651 8.64"
	 xml:space="preserve">
<g>
	<g>
		<g opacity="0.75">
			<polygon fill="#B3B3B3" points="-33.481,26.55 -31.558,26.55 -29.704,28.405 -27.82,26.521 -25.887,26.521 -25.887,28.405 
				-27.824,30.342 -25.905,32.26 -25.905,34.16 -27.791,34.16 -29.704,32.246 -31.61,34.152 -33.481,34.152 -33.481,32.242 
				-31.584,30.344 -33.495,28.433 			"/>
		</g>
		<polygon fill="#FFFFFF" points="-33.481,25.55 -31.558,25.55 -29.704,27.405 -27.82,25.521 -25.887,25.521 -25.887,27.405 
			-27.824,29.342 -25.905,31.26 -25.905,33.16 -27.791,33.16 -29.704,31.246 -31.61,33.152 -33.481,33.152 -33.481,31.242 
			-31.584,29.344 -33.495,27.433 		"/>
	</g>
</g>
<g>
	<g>
		<g opacity="0.75">
			<polygon fill="#B3B3B3" points="-17.42,28.812 -17.42,31.861 -9.844,31.869 -9.844,28.83 			"/>
		</g>
		<polygon fill="#FFFFFF" points="-17.42,27.812 -17.42,30.861 -9.844,30.869 -9.844,27.83 		"/>
	</g>
</g>
<g>
	<g>
		<g opacity="0.75">
			<polygon fill="#B3B3B3" points="-25.458,31.695 -25.458,28.978 -23.225,28.978 -23.225,26.558 -20.188,26.563 -20.188,28.989 
				-17.656,28.99 -17.656,31.697 -20.193,31.703 -20.201,34.129 -23.219,34.123 -23.216,31.697 			"/>
		</g>
		<polygon fill="#FFFFFF" points="-25.458,30.695 -25.458,27.978 -23.225,27.978 -23.225,25.558 -20.188,25.563 -20.188,27.989 
			-17.656,27.99 -17.656,30.697 -20.193,30.703 -20.201,33.129 -23.219,33.123 -23.216,30.697 		"/>
	</g>
</g>
</svg>
